<svg width="158" height="75" viewBox="0 0 158 75" fill="none" xmlns="http://www.w3.org/2000/svg">
<path fill-rule="evenodd" clip-rule="evenodd" d="M87.7768 12.0197C87.8967 12.1901 87.9998 12.3737 88.0839 12.5686C93.0438 13.9067 96.6952 18.3349 96.6952 23.5771C96.6952 29.8757 91.4243 35 84.9455 35C81.563 35 78.5104 33.6028 76.3646 31.3715H68.2193C66.4662 31.3715 65.04 29.9849 65.04 28.2806C65.04 27.3018 65.5109 26.4283 66.2436 25.8616C65.5109 25.2949 65.04 24.4215 65.04 23.4426C65.04 22.4638 65.5109 21.5904 66.2436 21.0237C65.5109 20.457 65.04 19.5835 65.04 18.6047C65.04 17.6259 65.5109 16.7525 66.2436 16.1857C65.5109 15.619 65.04 14.7456 65.04 13.7668C65.04 12.0625 66.4662 10.6759 68.2193 10.6759H70.0218C69.6699 10.1785 69.4634 9.57679 69.4634 8.92884C69.4634 8.28089 69.67 7.67917 70.0218 7.18181H64.487C62.734 7.18181 61.3077 5.7952 61.3077 4.0909C61.3077 2.38661 62.734 1 64.487 1H81.4205C83.1735 1 84.5998 2.38661 84.5998 4.0909C84.5998 4.73885 84.3932 5.34057 84.0413 5.83794H89.5762C91.3292 5.83794 92.7555 7.22454 92.7555 8.92884C92.7555 10.6331 91.3292 12.0197 89.5762 12.0197H87.7768ZM91.3732 8.92884C91.3732 7.96555 90.5671 7.18181 89.5762 7.18181H72.6427C71.6518 7.18181 70.8457 7.96555 70.8457 8.92884C70.8457 9.89213 71.6518 10.6759 72.6427 10.6759H85.1527H89.5762C90.5671 10.6759 91.3732 9.89213 91.3732 8.92884ZM62.69 4.0909C62.69 5.05419 63.4961 5.83794 64.487 5.83794H81.4205C82.4114 5.83794 83.2175 5.05419 83.2175 4.0909C83.2175 3.12762 82.4114 2.34387 81.4205 2.34387H64.487C63.4961 2.34387 62.69 3.12762 62.69 4.0909ZM85.1527 12.0197H68.2193C67.2285 12.0197 66.4223 12.8035 66.4223 13.7668C66.4223 14.7301 67.2285 15.5138 68.2193 15.5138H76.6309C78.7592 13.4395 81.7008 12.1542 84.9455 12.1542C85.2794 12.1542 85.6099 12.1686 85.9369 12.1953C85.6977 12.0826 85.4311 12.0197 85.1527 12.0197ZM75.4499 16.8577H68.2193C67.2284 16.8577 66.4223 17.6414 66.4223 18.6047C66.4223 19.5681 67.2284 20.3517 68.2193 20.3517H73.6734C74.0586 19.0814 74.6653 17.9027 75.4499 16.8577ZM73.356 21.6956H68.2193C67.2284 21.6956 66.4223 22.4793 66.4223 23.4426C66.4223 24.406 67.2284 25.1897 68.2193 25.1897H73.3134C73.2364 24.6627 73.1957 24.1245 73.1957 23.5771C73.1957 22.9363 73.2512 22.3079 73.356 21.6956ZM66.4223 28.2806C66.4223 29.2439 67.2284 30.0276 68.2193 30.0276H75.2539C74.5109 28.9758 73.9443 27.7977 73.5956 26.5335H68.2193C67.2284 26.5335 66.4223 27.3172 66.4223 28.2806ZM74.578 23.5771C74.578 29.1347 79.2289 33.6561 84.9455 33.6561C90.662 33.6561 95.3129 29.1347 95.3129 23.5771C95.3129 18.0195 90.662 13.4981 84.9455 13.4981C79.2289 13.4981 74.578 18.0195 74.578 23.5771ZM83.1824 21.2802C83.1824 22.0967 83.9718 22.7609 84.9421 22.7609C86.7945 22.7609 88.3016 24.1228 88.3016 25.7969C88.3016 27.2219 87.2094 28.42 85.742 28.7452V29.0811C85.742 29.5105 85.3838 29.8588 84.9421 29.8588C84.5005 29.8588 84.1423 29.5105 84.1423 29.0811V28.7452C82.6748 28.42 81.5827 27.2219 81.5827 25.7969C81.5827 25.3675 81.9409 25.0193 82.3826 25.0193C82.8243 25.0193 83.1824 25.3675 83.1824 25.7969C83.1824 26.6134 83.9718 27.2776 84.9421 27.2776C85.9125 27.2776 86.7018 26.6134 86.7018 25.7969C86.7018 24.9804 85.9125 24.3161 84.9421 24.3161C83.0897 24.3161 81.5827 22.9542 81.5827 21.2802C81.5827 19.8553 82.6748 18.6571 84.1423 18.3319V17.9275C84.1423 17.4981 84.5005 17.1499 84.9421 17.1499C85.3838 17.1499 85.742 17.4981 85.742 17.9275V18.3319C87.2094 18.6571 88.3016 19.8553 88.3016 21.2802C88.3016 21.7096 87.9434 22.0579 87.5017 22.0579C87.06 22.0579 86.7018 21.7096 86.7018 21.2802C86.7018 20.4637 85.9125 19.7995 84.9421 19.7995C83.9718 19.7995 83.1824 20.4637 83.1824 21.2802Z" fill="#FF872C"/>
<path d="M88.0839 12.5686L87.8543 12.6677L87.9022 12.7785L88.0188 12.8099L88.0839 12.5686ZM87.7768 12.0197V11.7697H87.2951L87.5724 12.1637L87.7768 12.0197ZM76.3646 31.3715L76.5448 31.1982L76.4711 31.1215H76.3646V31.3715ZM66.2436 25.8616L66.3966 26.0594L66.6522 25.8616L66.3966 25.6639L66.2436 25.8616ZM66.2436 21.0237L66.3966 21.2214L66.6522 21.0237L66.3966 20.8259L66.2436 21.0237ZM66.2436 16.1857L66.3966 16.3835L66.6522 16.1857L66.3966 15.988L66.2436 16.1857ZM70.0218 10.6759V10.9259H70.505L70.2259 10.5315L70.0218 10.6759ZM70.0218 7.18181L70.2259 7.32619L70.5049 6.93181H70.0218V7.18181ZM84.0413 5.83794L83.8373 5.69355L83.5582 6.08794H84.0413V5.83794ZM76.6309 15.5138V15.7638H76.7325L76.8053 15.6928L76.6309 15.5138ZM85.9369 12.1953L85.9165 12.4444L86.0434 11.9691L85.9369 12.1953ZM75.4499 16.8577L75.6498 17.0078L75.9502 16.6077H75.4499V16.8577ZM73.6734 20.3517V20.6017H73.8588L73.9126 20.4243L73.6734 20.3517ZM73.356 21.6956L73.6024 21.7378L73.6524 21.4456H73.356V21.6956ZM73.3134 25.1897V25.4397H73.6025L73.5607 25.1536L73.3134 25.1897ZM75.2539 30.0276V30.2776H75.7365L75.4581 29.8834L75.2539 30.0276ZM73.5956 26.5335L73.8366 26.4671L73.7859 26.2835H73.5956V26.5335ZM85.742 28.7452L85.6879 28.5011L85.492 28.5445V28.7452H85.742ZM84.1423 28.7452H84.3923V28.5445L84.1964 28.5011L84.1423 28.7452ZM84.1423 18.3319L84.1964 18.576L84.3923 18.5326V18.3319H84.1423ZM85.742 18.3319H85.492V18.5326L85.6879 18.576L85.742 18.3319ZM88.3134 12.4695C88.2225 12.2589 88.111 12.0602 87.9812 11.8758L87.5724 12.1637C87.6824 12.3199 87.777 12.4886 87.8543 12.6677L88.3134 12.4695ZM96.9452 23.5771C96.9452 18.2145 93.2107 13.6928 88.149 12.3272L88.0188 12.8099C92.8768 14.1206 96.4452 18.4552 96.4452 23.5771H96.9452ZM84.9455 35.25C91.5556 35.25 96.9452 30.0204 96.9452 23.5771H96.4452C96.4452 29.731 91.2929 34.75 84.9455 34.75V35.25ZM76.1844 31.5448C78.376 33.8237 81.4931 35.25 84.9455 35.25V34.75C81.6329 34.75 78.6448 33.3819 76.5448 31.1982L76.1844 31.5448ZM68.2193 31.6215H76.3646V31.1215H68.2193V31.6215ZM64.79 28.2806C64.79 30.1295 66.3349 31.6215 68.2193 31.6215V31.1215C66.5976 31.1215 65.29 29.8402 65.29 28.2806H64.79ZM66.0907 25.6639C65.301 26.2746 64.79 27.2192 64.79 28.2806H65.29C65.29 27.3844 65.7208 26.582 66.3966 26.0594L66.0907 25.6639ZM64.79 23.4426C64.79 24.5041 65.301 25.4486 66.0907 26.0594L66.3966 25.6639C65.7208 25.1412 65.29 24.3388 65.29 23.4426H64.79ZM66.0907 20.8259C65.301 21.4367 64.79 22.3812 64.79 23.4426H65.29C65.29 22.5465 65.7208 21.7441 66.3966 21.2214L66.0907 20.8259ZM64.79 18.6047C64.79 19.6661 65.301 20.6107 66.0907 21.2214L66.3966 20.8259C65.7208 20.3033 65.29 19.5009 65.29 18.6047H64.79ZM66.0907 15.988C65.301 16.5987 64.79 17.5433 64.79 18.6047H65.29C65.29 17.7085 65.7208 16.9062 66.3966 16.3835L66.0907 15.988ZM64.79 13.7668C64.79 14.8282 65.301 15.7727 66.0907 16.3835L66.3966 15.988C65.7208 15.4653 65.29 14.663 65.29 13.7668H64.79ZM68.2193 10.4259C66.3349 10.4259 64.79 11.9178 64.79 13.7668H65.29C65.29 12.2071 66.5976 10.9259 68.2193 10.9259V10.4259ZM70.0218 10.4259H68.2193V10.9259H70.0218V10.4259ZM69.2134 8.92884C69.2134 9.63092 69.4374 10.2827 69.8178 10.8203L70.2259 10.5315C69.9024 10.0743 69.7134 9.52265 69.7134 8.92884H69.2134ZM69.8178 7.03742C69.4375 7.57498 69.2134 8.22674 69.2134 8.92884H69.7134C69.7134 8.33504 69.9025 7.78337 70.2259 7.32619L69.8178 7.03742ZM64.487 7.43181H70.0218V6.93181H64.487V7.43181ZM61.0577 4.0909C61.0577 5.93987 62.6026 7.43181 64.487 7.43181V6.93181C62.8653 6.93181 61.5577 5.65053 61.5577 4.0909H61.0577ZM64.487 0.75C62.6026 0.75 61.0577 2.24193 61.0577 4.0909H61.5577C61.5577 2.53128 62.8653 1.25 64.487 1.25V0.75ZM81.4205 0.75H64.487V1.25H81.4205V0.75ZM84.8498 4.0909C84.8498 2.24193 83.3049 0.75 81.4205 0.75V1.25C83.0421 1.25 84.3498 2.53128 84.3498 4.0909H84.8498ZM84.2454 5.98232C84.6257 5.44476 84.8498 4.793 84.8498 4.0909H84.3498C84.3498 4.6847 84.1607 5.23637 83.8373 5.69355L84.2454 5.98232ZM89.5762 5.58794H84.0413V6.08794H89.5762V5.58794ZM93.0055 8.92884C93.0055 7.07987 91.4606 5.58794 89.5762 5.58794V6.08794C91.1978 6.08794 92.5055 7.36921 92.5055 8.92884H93.0055ZM89.5762 12.2697C91.4606 12.2697 93.0055 10.7778 93.0055 8.92884H92.5055C92.5055 10.4885 91.1978 11.7697 89.5762 11.7697V12.2697ZM87.7768 12.2697H89.5762V11.7697H87.7768V12.2697ZM89.5762 7.43181C90.4357 7.43181 91.1232 8.11022 91.1232 8.92884H91.6232C91.6232 7.82089 90.6985 6.93181 89.5762 6.93181V7.43181ZM72.6427 7.43181H89.5762V6.93181H72.6427V7.43181ZM71.0957 8.92884C71.0957 8.11022 71.7832 7.43181 72.6427 7.43181V6.93181C71.5204 6.93181 70.5957 7.82089 70.5957 8.92884H71.0957ZM72.6427 10.4259C71.7832 10.4259 71.0957 9.74746 71.0957 8.92884H70.5957C70.5957 10.0368 71.5204 10.9259 72.6427 10.9259V10.4259ZM85.1527 10.4259H72.6427V10.9259H85.1527V10.4259ZM89.5762 10.4259H85.1527V10.9259H89.5762V10.4259ZM91.1232 8.92884C91.1232 9.74746 90.4357 10.4259 89.5762 10.4259V10.9259C90.6985 10.9259 91.6232 10.0368 91.6232 8.92884H91.1232ZM64.487 5.58794C63.6275 5.58794 62.94 4.90952 62.94 4.0909H62.44C62.44 5.19886 63.3647 6.08794 64.487 6.08794V5.58794ZM81.4205 5.58794H64.487V6.08794H81.4205V5.58794ZM82.9675 4.0909C82.9675 4.90952 82.28 5.58794 81.4205 5.58794V6.08794C82.5428 6.08794 83.4675 5.19886 83.4675 4.0909H82.9675ZM81.4205 2.59387C82.28 2.59387 82.9675 3.27228 82.9675 4.0909H83.4675C83.4675 2.98295 82.5428 2.09387 81.4205 2.09387V2.59387ZM64.487 2.59387H81.4205V2.09387H64.487V2.59387ZM62.94 4.0909C62.94 3.27228 63.6275 2.59387 64.487 2.59387V2.09387C63.3647 2.09387 62.44 2.98295 62.44 4.0909H62.94ZM68.2193 12.2697H85.1527V11.7697H68.2193V12.2697ZM66.6723 13.7668C66.6723 12.9482 67.3598 12.2697 68.2193 12.2697V11.7697C67.0971 11.7697 66.1723 12.6588 66.1723 13.7668H66.6723ZM68.2193 15.2638C67.3598 15.2638 66.6723 14.5854 66.6723 13.7668H66.1723C66.1723 14.8747 67.0971 15.7638 68.2193 15.7638V15.2638ZM76.6309 15.2638H68.2193V15.7638H76.6309V15.2638ZM84.9455 11.9042C81.6338 11.9042 78.6301 13.2163 76.4564 15.3348L76.8053 15.6928C78.8883 13.6628 81.7678 12.4042 84.9455 12.4042V11.9042ZM85.9572 11.9461C85.6239 11.9189 85.2866 11.9042 84.9455 11.9042V12.4042C85.2722 12.4042 85.596 12.4183 85.9165 12.4444L85.9572 11.9461ZM85.1527 12.2697C85.3933 12.2697 85.6236 12.3241 85.8303 12.4214L86.0434 11.9691C85.7719 11.8412 85.469 11.7697 85.1527 11.7697V12.2697ZM68.2193 17.1077H75.4499V16.6077H68.2193V17.1077ZM66.6723 18.6047C66.6723 17.7861 67.3598 17.1077 68.2193 17.1077V16.6077C67.097 16.6077 66.1723 17.4968 66.1723 18.6047H66.6723ZM68.2193 20.1017C67.3598 20.1017 66.6723 19.4234 66.6723 18.6047H66.1723C66.1723 19.7127 67.097 20.6017 68.2193 20.6017V20.1017ZM73.6734 20.1017H68.2193V20.6017H73.6734V20.1017ZM75.2499 16.7076C74.4483 17.7753 73.8281 18.9802 73.4341 20.2792L73.9126 20.4243C74.2892 19.1827 74.8822 18.0301 75.6498 17.0078L75.2499 16.7076ZM68.2193 21.9456H73.356V21.4456H68.2193V21.9456ZM66.6723 23.4426C66.6723 22.624 67.3598 21.9456 68.2193 21.9456V21.4456C67.097 21.4456 66.1723 22.3346 66.1723 23.4426H66.6723ZM68.2193 24.9397C67.3598 24.9397 66.6723 24.2613 66.6723 23.4426H66.1723C66.1723 24.5507 67.097 25.4397 68.2193 25.4397V24.9397ZM73.3134 24.9397H68.2193V25.4397H73.3134V24.9397ZM72.9457 23.5771C72.9457 24.1369 72.9874 24.6872 73.066 25.2258L73.5607 25.1536C73.4855 24.6382 73.4457 24.112 73.4457 23.5771H72.9457ZM73.1096 21.6534C73.0024 22.2794 72.9457 22.9218 72.9457 23.5771H73.4457C73.4457 22.9507 73.4999 22.3365 73.6024 21.7378L73.1096 21.6534ZM68.2193 29.7776C67.3598 29.7776 66.6723 29.0993 66.6723 28.2806H66.1723C66.1723 29.3886 67.097 30.2776 68.2193 30.2776V29.7776ZM75.2539 29.7776H68.2193V30.2776H75.2539V29.7776ZM73.3546 26.6C73.7112 27.8927 74.2905 29.0971 75.0497 30.1718L75.4581 29.8834C74.7313 28.8545 74.1774 27.7026 73.8366 26.4671L73.3546 26.6ZM68.2193 26.7835H73.5956V26.2835H68.2193V26.7835ZM66.6723 28.2806C66.6723 27.4619 67.3598 26.7835 68.2193 26.7835V26.2835C67.097 26.2835 66.1723 27.1726 66.1723 28.2806H66.6723ZM84.9455 33.4061C79.3602 33.4061 74.828 28.99 74.828 23.5771H74.328C74.328 29.2794 79.0975 33.9061 84.9455 33.9061V33.4061ZM95.0629 23.5771C95.0629 28.99 90.5307 33.4061 84.9455 33.4061V33.9061C90.7934 33.9061 95.5629 29.2794 95.5629 23.5771H95.0629ZM84.9455 13.7481C90.5307 13.7481 95.0629 18.1642 95.0629 23.5771H95.5629C95.5629 17.8748 90.7934 13.2481 84.9455 13.2481V13.7481ZM74.828 23.5771C74.828 18.1642 79.3602 13.7481 84.9455 13.7481V13.2481C79.0975 13.2481 74.328 17.8748 74.328 23.5771H74.828ZM84.9421 22.5109C84.0677 22.5109 83.4324 21.9199 83.4324 21.2802H82.9324C82.9324 22.2734 83.8759 23.0109 84.9421 23.0109V22.5109ZM88.5516 25.7969C88.5516 23.9615 86.9082 22.5109 84.9421 22.5109V23.0109C86.6809 23.0109 88.0516 24.2841 88.0516 25.7969H88.5516ZM85.7961 28.9893C87.3584 28.6431 88.5516 27.358 88.5516 25.7969H88.0516C88.0516 27.0857 87.0605 28.197 85.6879 28.5011L85.7961 28.9893ZM85.992 29.0811V28.7452H85.492V29.0811H85.992ZM84.9421 30.1088C85.5152 30.1088 85.992 29.6552 85.992 29.0811H85.492C85.492 29.3659 85.2524 29.6088 84.9421 29.6088V30.1088ZM83.8923 29.0811C83.8923 29.6552 84.3691 30.1088 84.9421 30.1088V29.6088C84.6318 29.6088 84.3923 29.3659 84.3923 29.0811H83.8923ZM83.8923 28.7452V29.0811H84.3923V28.7452H83.8923ZM81.3327 25.7969C81.3327 27.358 82.5259 28.6431 84.0882 28.9893L84.1964 28.5011C82.8238 28.197 81.8327 27.0857 81.8327 25.7969H81.3327ZM82.3826 24.7693C81.8095 24.7693 81.3327 25.2228 81.3327 25.7969H81.8327C81.8327 25.5121 82.0723 25.2693 82.3826 25.2693V24.7693ZM83.4324 25.7969C83.4324 25.2228 82.9556 24.7693 82.3826 24.7693V25.2693C82.6929 25.2693 82.9324 25.5121 82.9324 25.7969H83.4324ZM84.9421 27.0276C84.0677 27.0276 83.4324 26.4366 83.4324 25.7969H82.9324C82.9324 26.7901 83.8759 27.5276 84.9421 27.5276V27.0276ZM86.4518 25.7969C86.4518 26.4366 85.8166 27.0276 84.9421 27.0276V27.5276C86.0084 27.5276 86.9518 26.7901 86.9518 25.7969H86.4518ZM84.9421 24.5661C85.8166 24.5661 86.4518 25.1571 86.4518 25.7969H86.9518C86.9518 24.8036 86.0084 24.0661 84.9421 24.0661V24.5661ZM81.3327 21.2802C81.3327 23.1155 82.9761 24.5661 84.9421 24.5661V24.0661C83.2034 24.0661 81.8327 22.7929 81.8327 21.2802H81.3327ZM84.0882 18.0878C82.5259 18.4341 81.3327 19.7191 81.3327 21.2802H81.8327C81.8327 19.9915 82.8238 18.8802 84.1964 18.576L84.0882 18.0878ZM83.8923 17.9275V18.3319H84.3923V17.9275H83.8923ZM84.9421 16.8999C84.3691 16.8999 83.8923 17.3534 83.8923 17.9275H84.3923C84.3923 17.6427 84.6318 17.3999 84.9421 17.3999V16.8999ZM85.992 17.9275C85.992 17.3534 85.5152 16.8999 84.9421 16.8999V17.3999C85.2524 17.3999 85.492 17.6427 85.492 17.9275H85.992ZM85.992 18.3319V17.9275H85.492V18.3319H85.992ZM88.5516 21.2802C88.5516 19.7191 87.3584 18.4341 85.7961 18.0878L85.6879 18.576C87.0605 18.8802 88.0516 19.9915 88.0516 21.2802H88.5516ZM87.5017 22.3079C88.0748 22.3079 88.5516 21.8543 88.5516 21.2802H88.0516C88.0516 21.565 87.812 21.8079 87.5017 21.8079V22.3079ZM86.4518 21.2802C86.4518 21.8543 86.9286 22.3079 87.5017 22.3079V21.8079C87.1914 21.8079 86.9518 21.565 86.9518 21.2802H86.4518ZM84.9421 20.0495C85.8166 20.0495 86.4518 20.6405 86.4518 21.2802H86.9518C86.9518 20.287 86.0084 19.5495 84.9421 19.5495V20.0495ZM83.4324 21.2802C83.4324 20.6405 84.0677 20.0495 84.9421 20.0495V19.5495C83.8759 19.5495 82.9324 20.287 82.9324 21.2802H83.4324Z" fill="#FF872C"/>
<path d="M13.5351 66L8.73508 57.66H6.12508V66H2.70508V45.15H9.90508C11.5051 45.15 12.8551 45.43 13.9551 45.99C15.0751 46.55 15.9051 47.3 16.4451 48.24C17.0051 49.18 17.2851 50.23 17.2851 51.39C17.2851 52.75 16.8851 53.99 16.0851 55.11C15.3051 56.21 14.0951 56.96 12.4551 57.36L17.6151 66H13.5351ZM6.12508 54.93H9.90508C11.1851 54.93 12.1451 54.61 12.7851 53.97C13.4451 53.33 13.7751 52.47 13.7751 51.39C13.7751 50.31 13.4551 49.47 12.8151 48.87C12.1751 48.25 11.2051 47.94 9.90508 47.94H6.12508V54.93ZM33.1502 66L25.0802 56.67V66H21.6602V45.15H25.0802V54.66L33.1802 45.15H37.4702L28.4102 55.59L37.6202 66H33.1502ZM52.9145 45.15V47.94H44.0645V54.09H50.9645V56.88H44.0645V66H40.6445V45.15H52.9145ZM57.824 47.28C57.204 47.28 56.684 47.07 56.264 46.65C55.844 46.23 55.634 45.71 55.634 45.09C55.634 44.47 55.844 43.95 56.264 43.53C56.684 43.11 57.204 42.9 57.824 42.9C58.424 42.9 58.934 43.11 59.354 43.53C59.774 43.95 59.984 44.47 59.984 45.09C59.984 45.71 59.774 46.23 59.354 46.65C58.934 47.07 58.424 47.28 57.824 47.28ZM59.504 49.47V66H56.084V49.47H59.504ZM72.3341 49.2C73.6341 49.2 74.7941 49.47 75.8141 50.01C76.8541 50.55 77.6641 51.35 78.2441 52.41C78.8241 53.47 79.1141 54.75 79.1141 56.25V66H75.7241V56.76C75.7241 55.28 75.3541 54.15 74.6141 53.37C73.8741 52.57 72.8641 52.17 71.5841 52.17C70.3041 52.17 69.2841 52.57 68.5241 53.37C67.7841 54.15 67.4141 55.28 67.4141 56.76V66H63.9941V49.47H67.4141V51.36C67.9741 50.68 68.6841 50.15 69.5441 49.77C70.4241 49.39 71.3541 49.2 72.3341 49.2ZM82.3366 57.66C82.3366 56 82.6766 54.53 83.3566 53.25C84.0566 51.97 84.9966 50.98 86.1766 50.28C87.3766 49.56 88.6966 49.2 90.1366 49.2C91.4366 49.2 92.5666 49.46 93.5266 49.98C94.5066 50.48 95.2866 51.11 95.8666 51.87V49.47H99.3166V66H95.8666V63.54C95.2866 64.32 94.4966 64.97 93.4966 65.49C92.4966 66.01 91.3566 66.27 90.0766 66.27C88.6566 66.27 87.3566 65.91 86.1766 65.19C84.9966 64.45 84.0566 63.43 83.3566 62.13C82.6766 60.81 82.3366 59.32 82.3366 57.66ZM95.8666 57.72C95.8666 56.58 95.6266 55.59 95.1466 54.75C94.6866 53.91 94.0766 53.27 93.3166 52.83C92.5566 52.39 91.7366 52.17 90.8566 52.17C89.9766 52.17 89.1566 52.39 88.3966 52.83C87.6366 53.25 87.0166 53.88 86.5366 54.72C86.0766 55.54 85.8466 56.52 85.8466 57.66C85.8466 58.8 86.0766 59.8 86.5366 60.66C87.0166 61.52 87.6366 62.18 88.3966 62.64C89.1766 63.08 89.9966 63.3 90.8566 63.3C91.7366 63.3 92.5566 63.08 93.3166 62.64C94.0766 62.2 94.6866 61.56 95.1466 60.72C95.6266 59.86 95.8666 58.86 95.8666 57.72ZM112.149 49.2C113.449 49.2 114.609 49.47 115.629 50.01C116.669 50.55 117.479 51.35 118.059 52.41C118.639 53.47 118.929 54.75 118.929 56.25V66H115.539V56.76C115.539 55.28 115.169 54.15 114.429 53.37C113.689 52.57 112.679 52.17 111.399 52.17C110.119 52.17 109.099 52.57 108.339 53.37C107.599 54.15 107.229 55.28 107.229 56.76V66H103.809V49.47H107.229V51.36C107.789 50.68 108.499 50.15 109.359 49.77C110.239 49.39 111.169 49.2 112.149 49.2ZM122.151 57.72C122.151 56.02 122.491 54.53 123.171 53.25C123.871 51.95 124.831 50.95 126.051 50.25C127.271 49.55 128.671 49.2 130.251 49.2C132.251 49.2 133.901 49.68 135.201 50.64C136.521 51.58 137.411 52.93 137.871 54.69H134.181C133.881 53.87 133.401 53.23 132.741 52.77C132.081 52.31 131.251 52.08 130.251 52.08C128.851 52.08 127.731 52.58 126.891 53.58C126.071 54.56 125.661 55.94 125.661 57.72C125.661 59.5 126.071 60.89 126.891 61.89C127.731 62.89 128.851 63.39 130.251 63.39C132.231 63.39 133.541 62.52 134.181 60.78H137.871C137.391 62.46 136.491 63.8 135.171 64.8C133.851 65.78 132.211 66.27 130.251 66.27C128.671 66.27 127.271 65.92 126.051 65.22C124.831 64.5 123.871 63.5 123.171 62.22C122.491 60.92 122.151 59.42 122.151 57.72ZM156.429 57.33C156.429 57.95 156.389 58.51 156.309 59.01H143.679C143.779 60.33 144.269 61.39 145.149 62.19C146.029 62.99 147.109 63.39 148.389 63.39C150.229 63.39 151.529 62.62 152.289 61.08H155.979C155.479 62.6 154.569 63.85 153.249 64.83C151.949 65.79 150.329 66.27 148.389 66.27C146.809 66.27 145.389 65.92 144.129 65.22C142.889 64.5 141.909 63.5 141.189 62.22C140.489 60.92 140.139 59.42 140.139 57.72C140.139 56.02 140.479 54.53 141.159 53.25C141.859 51.95 142.829 50.95 144.069 50.25C145.329 49.55 146.769 49.2 148.389 49.2C149.949 49.2 151.339 49.54 152.559 50.22C153.779 50.9 154.729 51.86 155.409 53.1C156.089 54.32 156.429 55.73 156.429 57.33ZM152.859 56.25C152.839 54.99 152.389 53.98 151.509 53.22C150.629 52.46 149.539 52.08 148.239 52.08C147.059 52.08 146.049 52.46 145.209 53.22C144.369 53.96 143.869 54.97 143.709 56.25H152.859Z" fill="white"/>
</svg>
